<?xml version="1.0" encoding="utf-8" standalone="no"?>
<!DOCTYPE svg PUBLIC "-//W3C//DTD SVG 1.1//EN"
  "http://www.w3.org/Graphics/SVG/1.1/DTD/svg11.dtd">
<!-- Created with matplotlib (https://matplotlib.org/) -->
<svg height="345.6pt" version="1.1" viewBox="0 0 460.8 345.6" width="460.8pt" xmlns="http://www.w3.org/2000/svg" xmlns:xlink="http://www.w3.org/1999/xlink">
 <defs>
  <style type="text/css">
*{stroke-linecap:butt;stroke-linejoin:round;}
  </style>
 </defs>
 <g id="figure_1">
  <g id="patch_1">
   <path d="M 0 345.6 
L 460.8 345.6 
L 460.8 0 
L 0 0 
z
" style="fill:#ffffff;"/>
  </g>
  <g id="axes_1">
   <g id="patch_2">
    <path d="M 169.554818 251.615206 
Q 187.109079 225.453695 205.286293 198.363783 
" style="fill:none;stroke:#000000;stroke-linecap:round;"/>
    <path d="M 172.644975 249.861642 
L 169.554818 251.615206 
L 170.006061 248.090942 
" style="fill:none;stroke:#000000;stroke-linecap:round;"/>
   </g>
   <g id="text_1">
    <g id="patch_3">
     <path d="M 126.237862 286.542952 
L 187.362138 286.542952 
L 187.362138 254.705048 
L 126.237862 254.705048 
z
" style="fill:#ffffff;stroke:#000000;stroke-linejoin:miter;"/>
    </g>
    <!-- gini = 0.0 -->
    <defs>
     <path d="M 45.40625 27.984375 
Q 45.40625 37.75 41.375 43.109375 
Q 37.359375 48.484375 30.078125 48.484375 
Q 22.859375 48.484375 18.828125 43.109375 
Q 14.796875 37.75 14.796875 27.984375 
Q 14.796875 18.265625 18.828125 12.890625 
Q 22.859375 7.515625 30.078125 7.515625 
Q 37.359375 7.515625 41.375 12.890625 
Q 45.40625 18.265625 45.40625 27.984375 
z
M 54.390625 6.78125 
Q 54.390625 -7.171875 48.1875 -13.984375 
Q 42 -20.796875 29.203125 -20.796875 
Q 24.46875 -20.796875 20.265625 -20.09375 
Q 16.0625 -19.390625 12.109375 -17.921875 
L 12.109375 -9.1875 
Q 16.0625 -11.328125 19.921875 -12.34375 
Q 23.78125 -13.375 27.78125 -13.375 
Q 36.625 -13.375 41.015625 -8.765625 
Q 45.40625 -4.15625 45.40625 5.171875 
L 45.40625 9.625 
Q 42.625 4.78125 38.28125 2.390625 
Q 33.9375 0 27.875 0 
Q 17.828125 0 11.671875 7.65625 
Q 5.515625 15.328125 5.515625 27.984375 
Q 5.515625 40.671875 11.671875 48.328125 
Q 17.828125 56 27.875 56 
Q 33.9375 56 38.28125 53.609375 
Q 42.625 51.21875 45.40625 46.390625 
L 45.40625 54.6875 
L 54.390625 54.6875 
z
" id="DejaVuSans-103"/>
     <path d="M 9.421875 54.6875 
L 18.40625 54.6875 
L 18.40625 0 
L 9.421875 0 
z
M 9.421875 75.984375 
L 18.40625 75.984375 
L 18.40625 64.59375 
L 9.421875 64.59375 
z
" id="DejaVuSans-105"/>
     <path d="M 54.890625 33.015625 
L 54.890625 0 
L 45.90625 0 
L 45.90625 32.71875 
Q 45.90625 40.484375 42.875 44.328125 
Q 39.84375 48.1875 33.796875 48.1875 
Q 26.515625 48.1875 22.3125 43.546875 
Q 18.109375 38.921875 18.109375 30.90625 
L 18.109375 0 
L 9.078125 0 
L 9.078125 54.6875 
L 18.109375 54.6875 
L 18.109375 46.1875 
Q 21.34375 51.125 25.703125 53.5625 
Q 30.078125 56 35.796875 56 
Q 45.21875 56 50.046875 50.171875 
Q 54.890625 44.34375 54.890625 33.015625 
z
" id="DejaVuSans-110"/>
     <path id="DejaVuSans-32"/>
     <path d="M 10.59375 45.40625 
L 73.1875 45.40625 
L 73.1875 37.203125 
L 10.59375 37.203125 
z
M 10.59375 25.484375 
L 73.1875 25.484375 
L 73.1875 17.1875 
L 10.59375 17.1875 
z
" id="DejaVuSans-61"/>
     <path d="M 31.78125 66.40625 
Q 24.171875 66.40625 20.328125 58.90625 
Q 16.5 51.421875 16.5 36.375 
Q 16.5 21.390625 20.328125 13.890625 
Q 24.171875 6.390625 31.78125 6.390625 
Q 39.453125 6.390625 43.28125 13.890625 
Q 47.125 21.390625 47.125 36.375 
Q 47.125 51.421875 43.28125 58.90625 
Q 39.453125 66.40625 31.78125 66.40625 
z
M 31.78125 74.21875 
Q 44.046875 74.21875 50.515625 64.515625 
Q 56.984375 54.828125 56.984375 36.375 
Q 56.984375 17.96875 50.515625 8.265625 
Q 44.046875 -1.421875 31.78125 -1.421875 
Q 19.53125 -1.421875 13.0625 8.265625 
Q 6.59375 17.96875 6.59375 36.375 
Q 6.59375 54.828125 13.0625 64.515625 
Q 19.53125 74.21875 31.78125 74.21875 
z
" id="DejaVuSans-48"/>
     <path d="M 10.6875 12.40625 
L 21 12.40625 
L 21 0 
L 10.6875 0 
z
" id="DejaVuSans-46"/>
    </defs>
    <g transform="translate(137.382345 263.919807)scale(0.079448 -0.079448)">
     <use xlink:href="#DejaVuSans-103"/>
     <use x="63.476562" xlink:href="#DejaVuSans-105"/>
     <use x="91.259766" xlink:href="#DejaVuSans-110"/>
     <use x="154.638672" xlink:href="#DejaVuSans-105"/>
     <use x="182.421875" xlink:href="#DejaVuSans-32"/>
     <use x="214.208984" xlink:href="#DejaVuSans-61"/>
     <use x="297.998047" xlink:href="#DejaVuSans-32"/>
     <use x="329.785156" xlink:href="#DejaVuSans-48"/>
     <use x="393.408203" xlink:href="#DejaVuSans-46"/>
     <use x="425.195312" xlink:href="#DejaVuSans-48"/>
    </g>
    <!-- samples = 1 -->
    <defs>
     <path d="M 44.28125 53.078125 
L 44.28125 44.578125 
Q 40.484375 46.53125 36.375 47.5 
Q 32.28125 48.484375 27.875 48.484375 
Q 21.1875 48.484375 17.84375 46.4375 
Q 14.5 44.390625 14.5 40.28125 
Q 14.5 37.15625 16.890625 35.375 
Q 19.28125 33.59375 26.515625 31.984375 
L 29.59375 31.296875 
Q 39.15625 29.25 43.1875 25.515625 
Q 47.21875 21.78125 47.21875 15.09375 
Q 47.21875 7.46875 41.1875 3.015625 
Q 35.15625 -1.421875 24.609375 -1.421875 
Q 20.21875 -1.421875 15.453125 -0.5625 
Q 10.6875 0.296875 5.421875 2 
L 5.421875 11.28125 
Q 10.40625 8.6875 15.234375 7.390625 
Q 20.0625 6.109375 24.8125 6.109375 
Q 31.15625 6.109375 34.5625 8.28125 
Q 37.984375 10.453125 37.984375 14.40625 
Q 37.984375 18.0625 35.515625 20.015625 
Q 33.0625 21.96875 24.703125 23.78125 
L 21.578125 24.515625 
Q 13.234375 26.265625 9.515625 29.90625 
Q 5.8125 33.546875 5.8125 39.890625 
Q 5.8125 47.609375 11.28125 51.796875 
Q 16.75 56 26.8125 56 
Q 31.78125 56 36.171875 55.265625 
Q 40.578125 54.546875 44.28125 53.078125 
z
" id="DejaVuSans-115"/>
     <path d="M 34.28125 27.484375 
Q 23.390625 27.484375 19.1875 25 
Q 14.984375 22.515625 14.984375 16.5 
Q 14.984375 11.71875 18.140625 8.90625 
Q 21.296875 6.109375 26.703125 6.109375 
Q 34.1875 6.109375 38.703125 11.40625 
Q 43.21875 16.703125 43.21875 25.484375 
L 43.21875 27.484375 
z
M 52.203125 31.203125 
L 52.203125 0 
L 43.21875 0 
L 43.21875 8.296875 
Q 40.140625 3.328125 35.546875 0.953125 
Q 30.953125 -1.421875 24.3125 -1.421875 
Q 15.921875 -1.421875 10.953125 3.296875 
Q 6 8.015625 6 15.921875 
Q 6 25.140625 12.171875 29.828125 
Q 18.359375 34.515625 30.609375 34.515625 
L 43.21875 34.515625 
L 43.21875 35.40625 
Q 43.21875 41.609375 39.140625 45 
Q 35.0625 48.390625 27.6875 48.390625 
Q 23 48.390625 18.546875 47.265625 
Q 14.109375 46.140625 10.015625 43.890625 
L 10.015625 52.203125 
Q 14.9375 54.109375 19.578125 55.046875 
Q 24.21875 56 28.609375 56 
Q 40.484375 56 46.34375 49.84375 
Q 52.203125 43.703125 52.203125 31.203125 
z
" id="DejaVuSans-97"/>
     <path d="M 52 44.1875 
Q 55.375 50.25 60.0625 53.125 
Q 64.75 56 71.09375 56 
Q 79.640625 56 84.28125 50.015625 
Q 88.921875 44.046875 88.921875 33.015625 
L 88.921875 0 
L 79.890625 0 
L 79.890625 32.71875 
Q 79.890625 40.578125 77.09375 44.375 
Q 74.3125 48.1875 68.609375 48.1875 
Q 61.625 48.1875 57.5625 43.546875 
Q 53.515625 38.921875 53.515625 30.90625 
L 53.515625 0 
L 44.484375 0 
L 44.484375 32.71875 
Q 44.484375 40.625 41.703125 44.40625 
Q 38.921875 48.1875 33.109375 48.1875 
Q 26.21875 48.1875 22.15625 43.53125 
Q 18.109375 38.875 18.109375 30.90625 
L 18.109375 0 
L 9.078125 0 
L 9.078125 54.6875 
L 18.109375 54.6875 
L 18.109375 46.1875 
Q 21.1875 51.21875 25.484375 53.609375 
Q 29.78125 56 35.6875 56 
Q 41.65625 56 45.828125 52.96875 
Q 50 49.953125 52 44.1875 
z
" id="DejaVuSans-109"/>
     <path d="M 18.109375 8.203125 
L 18.109375 -20.796875 
L 9.078125 -20.796875 
L 9.078125 54.6875 
L 18.109375 54.6875 
L 18.109375 46.390625 
Q 20.953125 51.265625 25.265625 53.625 
Q 29.59375 56 35.59375 56 
Q 45.5625 56 51.78125 48.09375 
Q 58.015625 40.1875 58.015625 27.296875 
Q 58.015625 14.40625 51.78125 6.484375 
Q 45.5625 -1.421875 35.59375 -1.421875 
Q 29.59375 -1.421875 25.265625 0.953125 
Q 20.953125 3.328125 18.109375 8.203125 
z
M 48.6875 27.296875 
Q 48.6875 37.203125 44.609375 42.84375 
Q 40.53125 48.484375 33.40625 48.484375 
Q 26.265625 48.484375 22.1875 42.84375 
Q 18.109375 37.203125 18.109375 27.296875 
Q 18.109375 17.390625 22.1875 11.75 
Q 26.265625 6.109375 33.40625 6.109375 
Q 40.53125 6.109375 44.609375 11.75 
Q 48.6875 17.390625 48.6875 27.296875 
z
" id="DejaVuSans-112"/>
     <path d="M 9.421875 75.984375 
L 18.40625 75.984375 
L 18.40625 0 
L 9.421875 0 
z
" id="DejaVuSans-108"/>
     <path d="M 56.203125 29.59375 
L 56.203125 25.203125 
L 14.890625 25.203125 
Q 15.484375 15.921875 20.484375 11.0625 
Q 25.484375 6.203125 34.421875 6.203125 
Q 39.59375 6.203125 44.453125 7.46875 
Q 49.3125 8.734375 54.109375 11.28125 
L 54.109375 2.78125 
Q 49.265625 0.734375 44.1875 -0.34375 
Q 39.109375 -1.421875 33.890625 -1.421875 
Q 20.796875 -1.421875 13.15625 6.1875 
Q 5.515625 13.8125 5.515625 26.8125 
Q 5.515625 40.234375 12.765625 48.109375 
Q 20.015625 56 32.328125 56 
Q 43.359375 56 49.78125 48.890625 
Q 56.203125 41.796875 56.203125 29.59375 
z
M 47.21875 32.234375 
Q 47.125 39.59375 43.09375 43.984375 
Q 39.0625 48.390625 32.421875 48.390625 
Q 24.90625 48.390625 20.390625 44.140625 
Q 15.875 39.890625 15.1875 32.171875 
z
" id="DejaVuSans-101"/>
     <path d="M 12.40625 8.296875 
L 28.515625 8.296875 
L 28.515625 63.921875 
L 10.984375 60.40625 
L 10.984375 69.390625 
L 28.421875 72.90625 
L 38.28125 72.90625 
L 38.28125 8.296875 
L 54.390625 8.296875 
L 54.390625 0 
L 12.40625 0 
z
" id="DejaVuSans-49"/>
    </defs>
    <g transform="translate(131.906621 272.816276)scale(0.079448 -0.079448)">
     <use xlink:href="#DejaVuSans-115"/>
     <use x="52.099609" xlink:href="#DejaVuSans-97"/>
     <use x="113.378906" xlink:href="#DejaVuSans-109"/>
     <use x="210.791016" xlink:href="#DejaVuSans-112"/>
     <use x="274.267578" xlink:href="#DejaVuSans-108"/>
     <use x="302.050781" xlink:href="#DejaVuSans-101"/>
     <use x="363.574219" xlink:href="#DejaVuSans-115"/>
     <use x="415.673828" xlink:href="#DejaVuSans-32"/>
     <use x="447.460938" xlink:href="#DejaVuSans-61"/>
     <use x="531.25" xlink:href="#DejaVuSans-32"/>
     <use x="563.037109" xlink:href="#DejaVuSans-49"/>
    </g>
    <!-- value = [0, 1] -->
    <defs>
     <path d="M 2.984375 54.6875 
L 12.5 54.6875 
L 29.59375 8.796875 
L 46.6875 54.6875 
L 56.203125 54.6875 
L 35.6875 0 
L 23.484375 0 
z
" id="DejaVuSans-118"/>
     <path d="M 8.5 21.578125 
L 8.5 54.6875 
L 17.484375 54.6875 
L 17.484375 21.921875 
Q 17.484375 14.15625 20.5 10.265625 
Q 23.53125 6.390625 29.59375 6.390625 
Q 36.859375 6.390625 41.078125 11.03125 
Q 45.3125 15.671875 45.3125 23.6875 
L 45.3125 54.6875 
L 54.296875 54.6875 
L 54.296875 0 
L 45.3125 0 
L 45.3125 8.40625 
Q 42.046875 3.421875 37.71875 1 
Q 33.40625 -1.421875 27.6875 -1.421875 
Q 18.265625 -1.421875 13.375 4.4375 
Q 8.5 10.296875 8.5 21.578125 
z
M 31.109375 56 
z
" id="DejaVuSans-117"/>
     <path d="M 8.59375 75.984375 
L 29.296875 75.984375 
L 29.296875 69 
L 17.578125 69 
L 17.578125 -6.203125 
L 29.296875 -6.203125 
L 29.296875 -13.1875 
L 8.59375 -13.1875 
z
" id="DejaVuSans-91"/>
     <path d="M 11.71875 12.40625 
L 22.015625 12.40625 
L 22.015625 4 
L 14.015625 -11.625 
L 7.71875 -11.625 
L 11.71875 4 
z
" id="DejaVuSans-44"/>
     <path d="M 30.421875 75.984375 
L 30.421875 -13.1875 
L 9.71875 -13.1875 
L 9.71875 -6.203125 
L 21.390625 -6.203125 
L 21.390625 69 
L 9.71875 69 
L 9.71875 75.984375 
z
" id="DejaVuSans-93"/>
    </defs>
    <g transform="translate(129.415793 281.712745)scale(0.079448 -0.079448)">
     <use xlink:href="#DejaVuSans-118"/>
     <use x="59.179688" xlink:href="#DejaVuSans-97"/>
     <use x="120.458984" xlink:href="#DejaVuSans-108"/>
     <use x="148.242188" xlink:href="#DejaVuSans-117"/>
     <use x="211.621094" xlink:href="#DejaVuSans-101"/>
     <use x="273.144531" xlink:href="#DejaVuSans-32"/>
     <use x="304.931641" xlink:href="#DejaVuSans-61"/>
     <use x="388.720703" xlink:href="#DejaVuSans-32"/>
     <use x="420.507812" xlink:href="#DejaVuSans-91"/>
     <use x="459.521484" xlink:href="#DejaVuSans-48"/>
     <use x="523.144531" xlink:href="#DejaVuSans-44"/>
     <use x="554.931641" xlink:href="#DejaVuSans-32"/>
     <use x="586.71875" xlink:href="#DejaVuSans-49"/>
     <use x="650.341797" xlink:href="#DejaVuSans-93"/>
    </g>
   </g>
   <g id="patch_4">
    <path d="M 243.245182 251.615206 
Q 225.690921 225.453695 207.513707 198.363783 
" style="fill:none;stroke:#000000;stroke-linecap:round;"/>
    <path d="M 242.793939 248.090942 
L 243.245182 251.615206 
L 240.155025 249.861642 
" style="fill:none;stroke:#000000;stroke-linecap:round;"/>
   </g>
   <g id="text_2">
    <g id="patch_5">
     <path d="M 222.910414 286.542952 
L 289.089586 286.542952 
L 289.089586 254.705048 
L 222.910414 254.705048 
z
" style="fill:#ffffff;stroke:#000000;stroke-linejoin:miter;"/>
    </g>
    <!-- gini = 0.0 -->
    <g transform="translate(236.582345 263.919807)scale(0.079448 -0.079448)">
     <use xlink:href="#DejaVuSans-103"/>
     <use x="63.476562" xlink:href="#DejaVuSans-105"/>
     <use x="91.259766" xlink:href="#DejaVuSans-110"/>
     <use x="154.638672" xlink:href="#DejaVuSans-105"/>
     <use x="182.421875" xlink:href="#DejaVuSans-32"/>
     <use x="214.208984" xlink:href="#DejaVuSans-61"/>
     <use x="297.998047" xlink:href="#DejaVuSans-32"/>
     <use x="329.785156" xlink:href="#DejaVuSans-48"/>
     <use x="393.408203" xlink:href="#DejaVuSans-46"/>
     <use x="425.195312" xlink:href="#DejaVuSans-48"/>
    </g>
    <!-- samples = 22 -->
    <defs>
     <path d="M 19.1875 8.296875 
L 53.609375 8.296875 
L 53.609375 0 
L 7.328125 0 
L 7.328125 8.296875 
Q 12.9375 14.109375 22.625 23.890625 
Q 32.328125 33.6875 34.8125 36.53125 
Q 39.546875 41.84375 41.421875 45.53125 
Q 43.3125 49.21875 43.3125 52.78125 
Q 43.3125 58.59375 39.234375 62.25 
Q 35.15625 65.921875 28.609375 65.921875 
Q 23.96875 65.921875 18.8125 64.3125 
Q 13.671875 62.703125 7.8125 59.421875 
L 7.8125 69.390625 
Q 13.765625 71.78125 18.9375 73 
Q 24.125 74.21875 28.421875 74.21875 
Q 39.75 74.21875 46.484375 68.546875 
Q 53.21875 62.890625 53.21875 53.421875 
Q 53.21875 48.921875 51.53125 44.890625 
Q 49.859375 40.875 45.40625 35.40625 
Q 44.1875 33.984375 37.640625 27.21875 
Q 31.109375 20.453125 19.1875 8.296875 
z
" id="DejaVuSans-50"/>
    </defs>
    <g transform="translate(228.579172 272.816276)scale(0.079448 -0.079448)">
     <use xlink:href="#DejaVuSans-115"/>
     <use x="52.099609" xlink:href="#DejaVuSans-97"/>
     <use x="113.378906" xlink:href="#DejaVuSans-109"/>
     <use x="210.791016" xlink:href="#DejaVuSans-112"/>
     <use x="274.267578" xlink:href="#DejaVuSans-108"/>
     <use x="302.050781" xlink:href="#DejaVuSans-101"/>
     <use x="363.574219" xlink:href="#DejaVuSans-115"/>
     <use x="415.673828" xlink:href="#DejaVuSans-32"/>
     <use x="447.460938" xlink:href="#DejaVuSans-61"/>
     <use x="531.25" xlink:href="#DejaVuSans-32"/>
     <use x="563.037109" xlink:href="#DejaVuSans-50"/>
     <use x="626.660156" xlink:href="#DejaVuSans-50"/>
    </g>
    <!-- value = [22, 0] -->
    <g transform="translate(226.088345 281.712745)scale(0.079448 -0.079448)">
     <use xlink:href="#DejaVuSans-118"/>
     <use x="59.179688" xlink:href="#DejaVuSans-97"/>
     <use x="120.458984" xlink:href="#DejaVuSans-108"/>
     <use x="148.242188" xlink:href="#DejaVuSans-117"/>
     <use x="211.621094" xlink:href="#DejaVuSans-101"/>
     <use x="273.144531" xlink:href="#DejaVuSans-32"/>
     <use x="304.931641" xlink:href="#DejaVuSans-61"/>
     <use x="388.720703" xlink:href="#DejaVuSans-32"/>
     <use x="420.507812" xlink:href="#DejaVuSans-91"/>
     <use x="459.521484" xlink:href="#DejaVuSans-50"/>
     <use x="523.144531" xlink:href="#DejaVuSans-50"/>
     <use x="586.767578" xlink:href="#DejaVuSans-44"/>
     <use x="618.554688" xlink:href="#DejaVuSans-32"/>
     <use x="650.341797" xlink:href="#DejaVuSans-48"/>
     <use x="713.964844" xlink:href="#DejaVuSans-93"/>
    </g>
   </g>
   <g id="patch_6">
    <path d="M 367.954818 251.615206 
Q 385.509079 225.453695 403.686293 198.363783 
" style="fill:none;stroke:#000000;stroke-linecap:round;"/>
    <path d="M 371.044975 249.861642 
L 367.954818 251.615206 
L 368.406061 248.090942 
" style="fill:none;stroke:#000000;stroke-linecap:round;"/>
   </g>
   <g id="text_3">
    <g id="patch_7">
     <path d="M 324.637862 286.542952 
L 385.762138 286.542952 
L 385.762138 254.705048 
L 324.637862 254.705048 
z
" style="fill:#ffffff;stroke:#000000;stroke-linejoin:miter;"/>
    </g>
    <!-- gini = 0.0 -->
    <g transform="translate(335.782345 263.919807)scale(0.079448 -0.079448)">
     <use xlink:href="#DejaVuSans-103"/>
     <use x="63.476562" xlink:href="#DejaVuSans-105"/>
     <use x="91.259766" xlink:href="#DejaVuSans-110"/>
     <use x="154.638672" xlink:href="#DejaVuSans-105"/>
     <use x="182.421875" xlink:href="#DejaVuSans-32"/>
     <use x="214.208984" xlink:href="#DejaVuSans-61"/>
     <use x="297.998047" xlink:href="#DejaVuSans-32"/>
     <use x="329.785156" xlink:href="#DejaVuSans-48"/>
     <use x="393.408203" xlink:href="#DejaVuSans-46"/>
     <use x="425.195312" xlink:href="#DejaVuSans-48"/>
    </g>
    <!-- samples = 3 -->
    <defs>
     <path d="M 40.578125 39.3125 
Q 47.65625 37.796875 51.625 33 
Q 55.609375 28.21875 55.609375 21.1875 
Q 55.609375 10.40625 48.1875 4.484375 
Q 40.765625 -1.421875 27.09375 -1.421875 
Q 22.515625 -1.421875 17.65625 -0.515625 
Q 12.796875 0.390625 7.625 2.203125 
L 7.625 11.71875 
Q 11.71875 9.328125 16.59375 8.109375 
Q 21.484375 6.890625 26.8125 6.890625 
Q 36.078125 6.890625 40.9375 10.546875 
Q 45.796875 14.203125 45.796875 21.1875 
Q 45.796875 27.640625 41.28125 31.265625 
Q 36.765625 34.90625 28.71875 34.90625 
L 20.21875 34.90625 
L 20.21875 43.015625 
L 29.109375 43.015625 
Q 36.375 43.015625 40.234375 45.921875 
Q 44.09375 48.828125 44.09375 54.296875 
Q 44.09375 59.90625 40.109375 62.90625 
Q 36.140625 65.921875 28.71875 65.921875 
Q 24.65625 65.921875 20.015625 65.03125 
Q 15.375 64.15625 9.8125 62.3125 
L 9.8125 71.09375 
Q 15.4375 72.65625 20.34375 73.4375 
Q 25.25 74.21875 29.59375 74.21875 
Q 40.828125 74.21875 47.359375 69.109375 
Q 53.90625 64.015625 53.90625 55.328125 
Q 53.90625 49.265625 50.4375 45.09375 
Q 46.96875 40.921875 40.578125 39.3125 
z
" id="DejaVuSans-51"/>
    </defs>
    <g transform="translate(330.306621 272.816276)scale(0.079448 -0.079448)">
     <use xlink:href="#DejaVuSans-115"/>
     <use x="52.099609" xlink:href="#DejaVuSans-97"/>
     <use x="113.378906" xlink:href="#DejaVuSans-109"/>
     <use x="210.791016" xlink:href="#DejaVuSans-112"/>
     <use x="274.267578" xlink:href="#DejaVuSans-108"/>
     <use x="302.050781" xlink:href="#DejaVuSans-101"/>
     <use x="363.574219" xlink:href="#DejaVuSans-115"/>
     <use x="415.673828" xlink:href="#DejaVuSans-32"/>
     <use x="447.460938" xlink:href="#DejaVuSans-61"/>
     <use x="531.25" xlink:href="#DejaVuSans-32"/>
     <use x="563.037109" xlink:href="#DejaVuSans-51"/>
    </g>
    <!-- value = [0, 3] -->
    <g transform="translate(327.815793 281.712745)scale(0.079448 -0.079448)">
     <use xlink:href="#DejaVuSans-118"/>
     <use x="59.179688" xlink:href="#DejaVuSans-97"/>
     <use x="120.458984" xlink:href="#DejaVuSans-108"/>
     <use x="148.242188" xlink:href="#DejaVuSans-117"/>
     <use x="211.621094" xlink:href="#DejaVuSans-101"/>
     <use x="273.144531" xlink:href="#DejaVuSans-32"/>
     <use x="304.931641" xlink:href="#DejaVuSans-61"/>
     <use x="388.720703" xlink:href="#DejaVuSans-32"/>
     <use x="420.507812" xlink:href="#DejaVuSans-91"/>
     <use x="459.521484" xlink:href="#DejaVuSans-48"/>
     <use x="523.144531" xlink:href="#DejaVuSans-44"/>
     <use x="554.931641" xlink:href="#DejaVuSans-32"/>
     <use x="586.71875" xlink:href="#DejaVuSans-51"/>
     <use x="650.341797" xlink:href="#DejaVuSans-93"/>
    </g>
   </g>
   <g id="patch_8">
    <path d="M 441.645182 251.615206 
Q 424.090921 225.453695 405.913707 198.363783 
" style="fill:none;stroke:#000000;stroke-linecap:round;"/>
    <path d="M 441.193939 248.090942 
L 441.645182 251.615206 
L 438.555025 249.861642 
" style="fill:none;stroke:#000000;stroke-linecap:round;"/>
   </g>
   <g id="text_4">
    <g id="patch_9">
     <path d="M 423.837862 286.542952 
L 484.962138 286.542952 
L 484.962138 254.705048 
L 423.837862 254.705048 
z
" style="fill:#ffffff;stroke:#000000;stroke-linejoin:miter;"/>
    </g>
    <!-- gini = 0.0 -->
    <g transform="translate(434.982345 263.919807)scale(0.079448 -0.079448)">
     <use xlink:href="#DejaVuSans-103"/>
     <use x="63.476562" xlink:href="#DejaVuSans-105"/>
     <use x="91.259766" xlink:href="#DejaVuSans-110"/>
     <use x="154.638672" xlink:href="#DejaVuSans-105"/>
     <use x="182.421875" xlink:href="#DejaVuSans-32"/>
     <use x="214.208984" xlink:href="#DejaVuSans-61"/>
     <use x="297.998047" xlink:href="#DejaVuSans-32"/>
     <use x="329.785156" xlink:href="#DejaVuSans-48"/>
     <use x="393.408203" xlink:href="#DejaVuSans-46"/>
     <use x="425.195312" xlink:href="#DejaVuSans-48"/>
    </g>
    <!-- samples = 3 -->
    <g transform="translate(429.506621 272.816276)scale(0.079448 -0.079448)">
     <use xlink:href="#DejaVuSans-115"/>
     <use x="52.099609" xlink:href="#DejaVuSans-97"/>
     <use x="113.378906" xlink:href="#DejaVuSans-109"/>
     <use x="210.791016" xlink:href="#DejaVuSans-112"/>
     <use x="274.267578" xlink:href="#DejaVuSans-108"/>
     <use x="302.050781" xlink:href="#DejaVuSans-101"/>
     <use x="363.574219" xlink:href="#DejaVuSans-115"/>
     <use x="415.673828" xlink:href="#DejaVuSans-32"/>
     <use x="447.460938" xlink:href="#DejaVuSans-61"/>
     <use x="531.25" xlink:href="#DejaVuSans-32"/>
     <use x="563.037109" xlink:href="#DejaVuSans-51"/>
    </g>
    <!-- value = [3, 0] -->
    <g transform="translate(427.015793 281.712745)scale(0.079448 -0.079448)">
     <use xlink:href="#DejaVuSans-118"/>
     <use x="59.179688" xlink:href="#DejaVuSans-97"/>
     <use x="120.458984" xlink:href="#DejaVuSans-108"/>
     <use x="148.242188" xlink:href="#DejaVuSans-117"/>
     <use x="211.621094" xlink:href="#DejaVuSans-101"/>
     <use x="273.144531" xlink:href="#DejaVuSans-32"/>
     <use x="304.931641" xlink:href="#DejaVuSans-61"/>
     <use x="388.720703" xlink:href="#DejaVuSans-32"/>
     <use x="420.507812" xlink:href="#DejaVuSans-91"/>
     <use x="459.521484" xlink:href="#DejaVuSans-51"/>
     <use x="523.144531" xlink:href="#DejaVuSans-44"/>
     <use x="554.931641" xlink:href="#DejaVuSans-32"/>
     <use x="586.71875" xlink:href="#DejaVuSans-48"/>
     <use x="650.341797" xlink:href="#DejaVuSans-93"/>
    </g>
   </g>
   <g id="patch_10">
    <path d="M 119.954818 177.695206 
Q 137.509079 151.533695 155.686293 124.443783 
" style="fill:none;stroke:#000000;stroke-linecap:round;"/>
    <path d="M 123.044975 175.941642 
L 119.954818 177.695206 
L 120.406061 174.170942 
" style="fill:none;stroke:#000000;stroke-linecap:round;"/>
   </g>
   <g id="text_5">
    <g id="patch_11">
     <path d="M 71.582966 212.622952 
L 142.817034 212.622952 
L 142.817034 180.785048 
L 71.582966 180.785048 
z
" style="fill:#ffffff;stroke:#000000;stroke-linejoin:miter;"/>
    </g>
    <!-- gini = 0.0 -->
    <g transform="translate(87.782345 189.999807)scale(0.079448 -0.079448)">
     <use xlink:href="#DejaVuSans-103"/>
     <use x="63.476562" xlink:href="#DejaVuSans-105"/>
     <use x="91.259766" xlink:href="#DejaVuSans-110"/>
     <use x="154.638672" xlink:href="#DejaVuSans-105"/>
     <use x="182.421875" xlink:href="#DejaVuSans-32"/>
     <use x="214.208984" xlink:href="#DejaVuSans-61"/>
     <use x="297.998047" xlink:href="#DejaVuSans-32"/>
     <use x="329.785156" xlink:href="#DejaVuSans-48"/>
     <use x="393.408203" xlink:href="#DejaVuSans-46"/>
     <use x="425.195312" xlink:href="#DejaVuSans-48"/>
    </g>
    <!-- samples = 429 -->
    <defs>
     <path d="M 37.796875 64.3125 
L 12.890625 25.390625 
L 37.796875 25.390625 
z
M 35.203125 72.90625 
L 47.609375 72.90625 
L 47.609375 25.390625 
L 58.015625 25.390625 
L 58.015625 17.1875 
L 47.609375 17.1875 
L 47.609375 0 
L 37.796875 0 
L 37.796875 17.1875 
L 4.890625 17.1875 
L 4.890625 26.703125 
z
" id="DejaVuSans-52"/>
     <path d="M 10.984375 1.515625 
L 10.984375 10.5 
Q 14.703125 8.734375 18.5 7.8125 
Q 22.3125 6.890625 25.984375 6.890625 
Q 35.75 6.890625 40.890625 13.453125 
Q 46.046875 20.015625 46.78125 33.40625 
Q 43.953125 29.203125 39.59375 26.953125 
Q 35.25 24.703125 29.984375 24.703125 
Q 19.046875 24.703125 12.671875 31.3125 
Q 6.296875 37.9375 6.296875 49.421875 
Q 6.296875 60.640625 12.9375 67.421875 
Q 19.578125 74.21875 30.609375 74.21875 
Q 43.265625 74.21875 49.921875 64.515625 
Q 56.59375 54.828125 56.59375 36.375 
Q 56.59375 19.140625 48.40625 8.859375 
Q 40.234375 -1.421875 26.421875 -1.421875 
Q 22.703125 -1.421875 18.890625 -0.6875 
Q 15.09375 0.046875 10.984375 1.515625 
z
M 30.609375 32.421875 
Q 37.25 32.421875 41.125 36.953125 
Q 45.015625 41.5 45.015625 49.421875 
Q 45.015625 57.28125 41.125 61.84375 
Q 37.25 66.40625 30.609375 66.40625 
Q 23.96875 66.40625 20.09375 61.84375 
Q 16.21875 57.28125 16.21875 49.421875 
Q 16.21875 41.5 20.09375 36.953125 
Q 23.96875 32.421875 30.609375 32.421875 
z
" id="DejaVuSans-57"/>
    </defs>
    <g transform="translate(77.251724 198.896276)scale(0.079448 -0.079448)">
     <use xlink:href="#DejaVuSans-115"/>
     <use x="52.099609" xlink:href="#DejaVuSans-97"/>
     <use x="113.378906" xlink:href="#DejaVuSans-109"/>
     <use x="210.791016" xlink:href="#DejaVuSans-112"/>
     <use x="274.267578" xlink:href="#DejaVuSans-108"/>
     <use x="302.050781" xlink:href="#DejaVuSans-101"/>
     <use x="363.574219" xlink:href="#DejaVuSans-115"/>
     <use x="415.673828" xlink:href="#DejaVuSans-32"/>
     <use x="447.460938" xlink:href="#DejaVuSans-61"/>
     <use x="531.25" xlink:href="#DejaVuSans-32"/>
     <use x="563.037109" xlink:href="#DejaVuSans-52"/>
     <use x="626.660156" xlink:href="#DejaVuSans-50"/>
     <use x="690.283203" xlink:href="#DejaVuSans-57"/>
    </g>
    <!-- value = [429, 0] -->
    <g transform="translate(74.760897 207.792745)scale(0.079448 -0.079448)">
     <use xlink:href="#DejaVuSans-118"/>
     <use x="59.179688" xlink:href="#DejaVuSans-97"/>
     <use x="120.458984" xlink:href="#DejaVuSans-108"/>
     <use x="148.242188" xlink:href="#DejaVuSans-117"/>
     <use x="211.621094" xlink:href="#DejaVuSans-101"/>
     <use x="273.144531" xlink:href="#DejaVuSans-32"/>
     <use x="304.931641" xlink:href="#DejaVuSans-61"/>
     <use x="388.720703" xlink:href="#DejaVuSans-32"/>
     <use x="420.507812" xlink:href="#DejaVuSans-91"/>
     <use x="459.521484" xlink:href="#DejaVuSans-52"/>
     <use x="523.144531" xlink:href="#DejaVuSans-50"/>
     <use x="586.767578" xlink:href="#DejaVuSans-57"/>
     <use x="650.390625" xlink:href="#DejaVuSans-44"/>
     <use x="682.177734" xlink:href="#DejaVuSans-32"/>
     <use x="713.964844" xlink:href="#DejaVuSans-48"/>
     <use x="777.587891" xlink:href="#DejaVuSans-93"/>
    </g>
   </g>
   <g id="patch_12">
    <path d="M 190.659489 173.24556 
Q 174.597899 149.30861 157.913355 124.443258 
" style="fill:none;stroke:#000000;stroke-linecap:round;"/>
    <path d="M 190.208246 169.721296 
L 190.659489 173.24556 
L 187.569332 171.491996 
" style="fill:none;stroke:#000000;stroke-linecap:round;"/>
   </g>
   <g id="text_6">
    <g id="patch_13">
     <path d="M 173.310414 217.071186 
L 239.489586 217.071186 
L 239.489586 176.336814 
L 173.310414 176.336814 
z
" style="fill:#ffffff;stroke:#000000;stroke-linejoin:miter;"/>
    </g>
    <!-- X[9] &lt;= 0.925 -->
    <defs>
     <path d="M 6.296875 72.90625 
L 16.890625 72.90625 
L 35.015625 45.796875 
L 53.21875 72.90625 
L 63.8125 72.90625 
L 40.375 37.890625 
L 65.375 0 
L 54.78125 0 
L 34.28125 31 
L 13.625 0 
L 2.984375 0 
L 29 38.921875 
z
" id="DejaVuSans-88"/>
     <path d="M 73.1875 49.21875 
L 22.796875 31.296875 
L 73.1875 13.484375 
L 73.1875 4.59375 
L 10.59375 27.296875 
L 10.59375 35.40625 
L 73.1875 58.109375 
z
" id="DejaVuSans-60"/>
     <path d="M 10.796875 72.90625 
L 49.515625 72.90625 
L 49.515625 64.59375 
L 19.828125 64.59375 
L 19.828125 46.734375 
Q 21.96875 47.46875 24.109375 47.828125 
Q 26.265625 48.1875 28.421875 48.1875 
Q 40.625 48.1875 47.75 41.5 
Q 54.890625 34.8125 54.890625 23.390625 
Q 54.890625 11.625 47.5625 5.09375 
Q 40.234375 -1.421875 26.90625 -1.421875 
Q 22.3125 -1.421875 17.546875 -0.640625 
Q 12.796875 0.140625 7.71875 1.703125 
L 7.71875 11.625 
Q 12.109375 9.234375 16.796875 8.0625 
Q 21.484375 6.890625 26.703125 6.890625 
Q 35.15625 6.890625 40.078125 11.328125 
Q 45.015625 15.765625 45.015625 23.390625 
Q 45.015625 31 40.078125 35.4375 
Q 35.15625 39.890625 26.703125 39.890625 
Q 22.75 39.890625 18.8125 39.015625 
Q 14.890625 38.140625 10.796875 36.28125 
z
" id="DejaVuSans-53"/>
    </defs>
    <g transform="translate(177.496966 185.551572)scale(0.079448 -0.079448)">
     <use xlink:href="#DejaVuSans-88"/>
     <use x="68.505859" xlink:href="#DejaVuSans-91"/>
     <use x="107.519531" xlink:href="#DejaVuSans-57"/>
     <use x="171.142578" xlink:href="#DejaVuSans-93"/>
     <use x="210.15625" xlink:href="#DejaVuSans-32"/>
     <use x="241.943359" xlink:href="#DejaVuSans-60"/>
     <use x="325.732422" xlink:href="#DejaVuSans-61"/>
     <use x="409.521484" xlink:href="#DejaVuSans-32"/>
     <use x="441.308594" xlink:href="#DejaVuSans-48"/>
     <use x="504.931641" xlink:href="#DejaVuSans-46"/>
     <use x="536.71875" xlink:href="#DejaVuSans-57"/>
     <use x="600.341797" xlink:href="#DejaVuSans-50"/>
     <use x="663.964844" xlink:href="#DejaVuSans-53"/>
    </g>
    <!-- gini = 0.083 -->
    <defs>
     <path d="M 31.78125 34.625 
Q 24.75 34.625 20.71875 30.859375 
Q 16.703125 27.09375 16.703125 20.515625 
Q 16.703125 13.921875 20.71875 10.15625 
Q 24.75 6.390625 31.78125 6.390625 
Q 38.8125 6.390625 42.859375 10.171875 
Q 46.921875 13.96875 46.921875 20.515625 
Q 46.921875 27.09375 42.890625 30.859375 
Q 38.875 34.625 31.78125 34.625 
z
M 21.921875 38.8125 
Q 15.578125 40.375 12.03125 44.71875 
Q 8.5 49.078125 8.5 55.328125 
Q 8.5 64.0625 14.71875 69.140625 
Q 20.953125 74.21875 31.78125 74.21875 
Q 42.671875 74.21875 48.875 69.140625 
Q 55.078125 64.0625 55.078125 55.328125 
Q 55.078125 49.078125 51.53125 44.71875 
Q 48 40.375 41.703125 38.8125 
Q 48.828125 37.15625 52.796875 32.3125 
Q 56.78125 27.484375 56.78125 20.515625 
Q 56.78125 9.90625 50.3125 4.234375 
Q 43.84375 -1.421875 31.78125 -1.421875 
Q 19.734375 -1.421875 13.25 4.234375 
Q 6.78125 9.90625 6.78125 20.515625 
Q 6.78125 27.484375 10.78125 32.3125 
Q 14.796875 37.15625 21.921875 38.8125 
z
M 18.3125 54.390625 
Q 18.3125 48.734375 21.84375 45.5625 
Q 25.390625 42.390625 31.78125 42.390625 
Q 38.140625 42.390625 41.71875 45.5625 
Q 45.3125 48.734375 45.3125 54.390625 
Q 45.3125 60.0625 41.71875 63.234375 
Q 38.140625 66.40625 31.78125 66.40625 
Q 25.390625 66.40625 21.84375 63.234375 
Q 18.3125 60.0625 18.3125 54.390625 
z
" id="DejaVuSans-56"/>
    </defs>
    <g transform="translate(181.927448 194.448041)scale(0.079448 -0.079448)">
     <use xlink:href="#DejaVuSans-103"/>
     <use x="63.476562" xlink:href="#DejaVuSans-105"/>
     <use x="91.259766" xlink:href="#DejaVuSans-110"/>
     <use x="154.638672" xlink:href="#DejaVuSans-105"/>
     <use x="182.421875" xlink:href="#DejaVuSans-32"/>
     <use x="214.208984" xlink:href="#DejaVuSans-61"/>
     <use x="297.998047" xlink:href="#DejaVuSans-32"/>
     <use x="329.785156" xlink:href="#DejaVuSans-48"/>
     <use x="393.408203" xlink:href="#DejaVuSans-46"/>
     <use x="425.195312" xlink:href="#DejaVuSans-48"/>
     <use x="488.818359" xlink:href="#DejaVuSans-56"/>
     <use x="552.441406" xlink:href="#DejaVuSans-51"/>
    </g>
    <!-- samples = 23 -->
    <g transform="translate(178.979172 203.34451)scale(0.079448 -0.079448)">
     <use xlink:href="#DejaVuSans-115"/>
     <use x="52.099609" xlink:href="#DejaVuSans-97"/>
     <use x="113.378906" xlink:href="#DejaVuSans-109"/>
     <use x="210.791016" xlink:href="#DejaVuSans-112"/>
     <use x="274.267578" xlink:href="#DejaVuSans-108"/>
     <use x="302.050781" xlink:href="#DejaVuSans-101"/>
     <use x="363.574219" xlink:href="#DejaVuSans-115"/>
     <use x="415.673828" xlink:href="#DejaVuSans-32"/>
     <use x="447.460938" xlink:href="#DejaVuSans-61"/>
     <use x="531.25" xlink:href="#DejaVuSans-32"/>
     <use x="563.037109" xlink:href="#DejaVuSans-50"/>
     <use x="626.660156" xlink:href="#DejaVuSans-51"/>
    </g>
    <!-- value = [22, 1] -->
    <g transform="translate(176.488345 212.240979)scale(0.079448 -0.079448)">
     <use xlink:href="#DejaVuSans-118"/>
     <use x="59.179688" xlink:href="#DejaVuSans-97"/>
     <use x="120.458984" xlink:href="#DejaVuSans-108"/>
     <use x="148.242188" xlink:href="#DejaVuSans-117"/>
     <use x="211.621094" xlink:href="#DejaVuSans-101"/>
     <use x="273.144531" xlink:href="#DejaVuSans-32"/>
     <use x="304.931641" xlink:href="#DejaVuSans-61"/>
     <use x="388.720703" xlink:href="#DejaVuSans-32"/>
     <use x="420.507812" xlink:href="#DejaVuSans-91"/>
     <use x="459.521484" xlink:href="#DejaVuSans-50"/>
     <use x="523.144531" xlink:href="#DejaVuSans-50"/>
     <use x="586.767578" xlink:href="#DejaVuSans-44"/>
     <use x="618.554688" xlink:href="#DejaVuSans-32"/>
     <use x="650.341797" xlink:href="#DejaVuSans-49"/>
     <use x="713.964844" xlink:href="#DejaVuSans-93"/>
    </g>
   </g>
   <g id="patch_14">
    <path d="M 420.540511 173.24556 
Q 436.602101 149.30861 453.286645 124.443258 
" style="fill:none;stroke:#000000;stroke-linecap:round;"/>
    <path d="M 423.630668 171.491996 
L 420.540511 173.24556 
L 420.991754 169.721296 
" style="fill:none;stroke:#000000;stroke-linecap:round;"/>
   </g>
   <g id="text_7">
    <g id="patch_15">
     <path d="M 374.237862 217.071186 
L 435.362138 217.071186 
L 435.362138 176.336814 
L 374.237862 176.336814 
z
" style="fill:#ffffff;stroke:#000000;stroke-linejoin:miter;"/>
    </g>
    <!-- X[11] &lt;= 0.5 -->
    <g transform="translate(378.424414 185.551572)scale(0.079448 -0.079448)">
     <use xlink:href="#DejaVuSans-88"/>
     <use x="68.505859" xlink:href="#DejaVuSans-91"/>
     <use x="107.519531" xlink:href="#DejaVuSans-49"/>
     <use x="171.142578" xlink:href="#DejaVuSans-49"/>
     <use x="234.765625" xlink:href="#DejaVuSans-93"/>
     <use x="273.779297" xlink:href="#DejaVuSans-32"/>
     <use x="305.566406" xlink:href="#DejaVuSans-60"/>
     <use x="389.355469" xlink:href="#DejaVuSans-61"/>
     <use x="473.144531" xlink:href="#DejaVuSans-32"/>
     <use x="504.931641" xlink:href="#DejaVuSans-48"/>
     <use x="568.554688" xlink:href="#DejaVuSans-46"/>
     <use x="600.341797" xlink:href="#DejaVuSans-53"/>
    </g>
    <!-- gini = 0.5 -->
    <g transform="translate(385.382345 194.448041)scale(0.079448 -0.079448)">
     <use xlink:href="#DejaVuSans-103"/>
     <use x="63.476562" xlink:href="#DejaVuSans-105"/>
     <use x="91.259766" xlink:href="#DejaVuSans-110"/>
     <use x="154.638672" xlink:href="#DejaVuSans-105"/>
     <use x="182.421875" xlink:href="#DejaVuSans-32"/>
     <use x="214.208984" xlink:href="#DejaVuSans-61"/>
     <use x="297.998047" xlink:href="#DejaVuSans-32"/>
     <use x="329.785156" xlink:href="#DejaVuSans-48"/>
     <use x="393.408203" xlink:href="#DejaVuSans-46"/>
     <use x="425.195312" xlink:href="#DejaVuSans-53"/>
    </g>
    <!-- samples = 6 -->
    <defs>
     <path d="M 33.015625 40.375 
Q 26.375 40.375 22.484375 35.828125 
Q 18.609375 31.296875 18.609375 23.390625 
Q 18.609375 15.53125 22.484375 10.953125 
Q 26.375 6.390625 33.015625 6.390625 
Q 39.65625 6.390625 43.53125 10.953125 
Q 47.40625 15.53125 47.40625 23.390625 
Q 47.40625 31.296875 43.53125 35.828125 
Q 39.65625 40.375 33.015625 40.375 
z
M 52.59375 71.296875 
L 52.59375 62.3125 
Q 48.875 64.0625 45.09375 64.984375 
Q 41.3125 65.921875 37.59375 65.921875 
Q 27.828125 65.921875 22.671875 59.328125 
Q 17.53125 52.734375 16.796875 39.40625 
Q 19.671875 43.65625 24.015625 45.921875 
Q 28.375 48.1875 33.59375 48.1875 
Q 44.578125 48.1875 50.953125 41.515625 
Q 57.328125 34.859375 57.328125 23.390625 
Q 57.328125 12.15625 50.6875 5.359375 
Q 44.046875 -1.421875 33.015625 -1.421875 
Q 20.359375 -1.421875 13.671875 8.265625 
Q 6.984375 17.96875 6.984375 36.375 
Q 6.984375 53.65625 15.1875 63.9375 
Q 23.390625 74.21875 37.203125 74.21875 
Q 40.921875 74.21875 44.703125 73.484375 
Q 48.484375 72.75 52.59375 71.296875 
z
" id="DejaVuSans-54"/>
    </defs>
    <g transform="translate(379.906621 203.34451)scale(0.079448 -0.079448)">
     <use xlink:href="#DejaVuSans-115"/>
     <use x="52.099609" xlink:href="#DejaVuSans-97"/>
     <use x="113.378906" xlink:href="#DejaVuSans-109"/>
     <use x="210.791016" xlink:href="#DejaVuSans-112"/>
     <use x="274.267578" xlink:href="#DejaVuSans-108"/>
     <use x="302.050781" xlink:href="#DejaVuSans-101"/>
     <use x="363.574219" xlink:href="#DejaVuSans-115"/>
     <use x="415.673828" xlink:href="#DejaVuSans-32"/>
     <use x="447.460938" xlink:href="#DejaVuSans-61"/>
     <use x="531.25" xlink:href="#DejaVuSans-32"/>
     <use x="563.037109" xlink:href="#DejaVuSans-54"/>
    </g>
    <!-- value = [3, 3] -->
    <g transform="translate(377.415793 212.240979)scale(0.079448 -0.079448)">
     <use xlink:href="#DejaVuSans-118"/>
     <use x="59.179688" xlink:href="#DejaVuSans-97"/>
     <use x="120.458984" xlink:href="#DejaVuSans-108"/>
     <use x="148.242188" xlink:href="#DejaVuSans-117"/>
     <use x="211.621094" xlink:href="#DejaVuSans-101"/>
     <use x="273.144531" xlink:href="#DejaVuSans-32"/>
     <use x="304.931641" xlink:href="#DejaVuSans-61"/>
     <use x="388.720703" xlink:href="#DejaVuSans-32"/>
     <use x="420.507812" xlink:href="#DejaVuSans-91"/>
     <use x="459.521484" xlink:href="#DejaVuSans-51"/>
     <use x="523.144531" xlink:href="#DejaVuSans-44"/>
     <use x="554.931641" xlink:href="#DejaVuSans-32"/>
     <use x="586.71875" xlink:href="#DejaVuSans-51"/>
     <use x="650.341797" xlink:href="#DejaVuSans-93"/>
    </g>
   </g>
   <g id="patch_16">
    <path d="M 491.245182 177.695206 
Q 473.690921 151.533695 455.513707 124.443783 
" style="fill:none;stroke:#000000;stroke-linecap:round;"/>
    <path d="M 490.793939 174.170942 
L 491.245182 177.695206 
L 488.155025 175.941642 
" style="fill:none;stroke:#000000;stroke-linecap:round;"/>
   </g>
   <g id="text_8">
    <g id="patch_17">
     <path d="M 470.910414 212.622952 
L 537.089586 212.622952 
L 537.089586 180.785048 
L 470.910414 180.785048 
z
" style="fill:#ffffff;stroke:#000000;stroke-linejoin:miter;"/>
    </g>
    <!-- gini = 0.0 -->
    <g transform="translate(484.582345 189.999807)scale(0.079448 -0.079448)">
     <use xlink:href="#DejaVuSans-103"/>
     <use x="63.476562" xlink:href="#DejaVuSans-105"/>
     <use x="91.259766" xlink:href="#DejaVuSans-110"/>
     <use x="154.638672" xlink:href="#DejaVuSans-105"/>
     <use x="182.421875" xlink:href="#DejaVuSans-32"/>
     <use x="214.208984" xlink:href="#DejaVuSans-61"/>
     <use x="297.998047" xlink:href="#DejaVuSans-32"/>
     <use x="329.785156" xlink:href="#DejaVuSans-48"/>
     <use x="393.408203" xlink:href="#DejaVuSans-46"/>
     <use x="425.195312" xlink:href="#DejaVuSans-48"/>
    </g>
    <!-- samples = 21 -->
    <g transform="translate(476.579172 198.896276)scale(0.079448 -0.079448)">
     <use xlink:href="#DejaVuSans-115"/>
     <use x="52.099609" xlink:href="#DejaVuSans-97"/>
     <use x="113.378906" xlink:href="#DejaVuSans-109"/>
     <use x="210.791016" xlink:href="#DejaVuSans-112"/>
     <use x="274.267578" xlink:href="#DejaVuSans-108"/>
     <use x="302.050781" xlink:href="#DejaVuSans-101"/>
     <use x="363.574219" xlink:href="#DejaVuSans-115"/>
     <use x="415.673828" xlink:href="#DejaVuSans-32"/>
     <use x="447.460938" xlink:href="#DejaVuSans-61"/>
     <use x="531.25" xlink:href="#DejaVuSans-32"/>
     <use x="563.037109" xlink:href="#DejaVuSans-50"/>
     <use x="626.660156" xlink:href="#DejaVuSans-49"/>
    </g>
    <!-- value = [21, 0] -->
    <g transform="translate(474.088345 207.792745)scale(0.079448 -0.079448)">
     <use xlink:href="#DejaVuSans-118"/>
     <use x="59.179688" xlink:href="#DejaVuSans-97"/>
     <use x="120.458984" xlink:href="#DejaVuSans-108"/>
     <use x="148.242188" xlink:href="#DejaVuSans-117"/>
     <use x="211.621094" xlink:href="#DejaVuSans-101"/>
     <use x="273.144531" xlink:href="#DejaVuSans-32"/>
     <use x="304.931641" xlink:href="#DejaVuSans-61"/>
     <use x="388.720703" xlink:href="#DejaVuSans-32"/>
     <use x="420.507812" xlink:href="#DejaVuSans-91"/>
     <use x="459.521484" xlink:href="#DejaVuSans-50"/>
     <use x="523.144531" xlink:href="#DejaVuSans-49"/>
     <use x="586.767578" xlink:href="#DejaVuSans-44"/>
     <use x="618.554688" xlink:href="#DejaVuSans-32"/>
     <use x="650.341797" xlink:href="#DejaVuSans-48"/>
     <use x="713.964844" xlink:href="#DejaVuSans-93"/>
    </g>
   </g>
   <g id="patch_18">
    <path d="M 195.709878 103.454577 
Q 249.25919 76.85266 303.809791 49.753329 
" style="fill:none;stroke:#000000;stroke-linecap:round;"/>
    <path d="M 199.262901 103.463758 
L 195.709878 103.454577 
L 197.849037 100.617667 
" style="fill:none;stroke:#000000;stroke-linecap:round;"/>
   </g>
   <g id="text_9">
    <g id="patch_19">
     <path d="M 121.182966 143.151186 
L 192.417034 143.151186 
L 192.417034 102.416814 
L 121.182966 102.416814 
z
" style="fill:#ffffff;stroke:#000000;stroke-linejoin:miter;"/>
    </g>
    <!-- X[9] &lt;= 0.915 -->
    <g transform="translate(127.896966 111.631572)scale(0.079448 -0.079448)">
     <use xlink:href="#DejaVuSans-88"/>
     <use x="68.505859" xlink:href="#DejaVuSans-91"/>
     <use x="107.519531" xlink:href="#DejaVuSans-57"/>
     <use x="171.142578" xlink:href="#DejaVuSans-93"/>
     <use x="210.15625" xlink:href="#DejaVuSans-32"/>
     <use x="241.943359" xlink:href="#DejaVuSans-60"/>
     <use x="325.732422" xlink:href="#DejaVuSans-61"/>
     <use x="409.521484" xlink:href="#DejaVuSans-32"/>
     <use x="441.308594" xlink:href="#DejaVuSans-48"/>
     <use x="504.931641" xlink:href="#DejaVuSans-46"/>
     <use x="536.71875" xlink:href="#DejaVuSans-57"/>
     <use x="600.341797" xlink:href="#DejaVuSans-49"/>
     <use x="663.964844" xlink:href="#DejaVuSans-53"/>
    </g>
    <!-- gini = 0.004 -->
    <g transform="translate(132.327448 120.528041)scale(0.079448 -0.079448)">
     <use xlink:href="#DejaVuSans-103"/>
     <use x="63.476562" xlink:href="#DejaVuSans-105"/>
     <use x="91.259766" xlink:href="#DejaVuSans-110"/>
     <use x="154.638672" xlink:href="#DejaVuSans-105"/>
     <use x="182.421875" xlink:href="#DejaVuSans-32"/>
     <use x="214.208984" xlink:href="#DejaVuSans-61"/>
     <use x="297.998047" xlink:href="#DejaVuSans-32"/>
     <use x="329.785156" xlink:href="#DejaVuSans-48"/>
     <use x="393.408203" xlink:href="#DejaVuSans-46"/>
     <use x="425.195312" xlink:href="#DejaVuSans-48"/>
     <use x="488.818359" xlink:href="#DejaVuSans-48"/>
     <use x="552.441406" xlink:href="#DejaVuSans-52"/>
    </g>
    <!-- samples = 452 -->
    <g transform="translate(126.851724 129.42451)scale(0.079448 -0.079448)">
     <use xlink:href="#DejaVuSans-115"/>
     <use x="52.099609" xlink:href="#DejaVuSans-97"/>
     <use x="113.378906" xlink:href="#DejaVuSans-109"/>
     <use x="210.791016" xlink:href="#DejaVuSans-112"/>
     <use x="274.267578" xlink:href="#DejaVuSans-108"/>
     <use x="302.050781" xlink:href="#DejaVuSans-101"/>
     <use x="363.574219" xlink:href="#DejaVuSans-115"/>
     <use x="415.673828" xlink:href="#DejaVuSans-32"/>
     <use x="447.460938" xlink:href="#DejaVuSans-61"/>
     <use x="531.25" xlink:href="#DejaVuSans-32"/>
     <use x="563.037109" xlink:href="#DejaVuSans-52"/>
     <use x="626.660156" xlink:href="#DejaVuSans-53"/>
     <use x="690.283203" xlink:href="#DejaVuSans-50"/>
    </g>
    <!-- value = [451, 1] -->
    <g transform="translate(124.360897 138.320979)scale(0.079448 -0.079448)">
     <use xlink:href="#DejaVuSans-118"/>
     <use x="59.179688" xlink:href="#DejaVuSans-97"/>
     <use x="120.458984" xlink:href="#DejaVuSans-108"/>
     <use x="148.242188" xlink:href="#DejaVuSans-117"/>
     <use x="211.621094" xlink:href="#DejaVuSans-101"/>
     <use x="273.144531" xlink:href="#DejaVuSans-32"/>
     <use x="304.931641" xlink:href="#DejaVuSans-61"/>
     <use x="388.720703" xlink:href="#DejaVuSans-32"/>
     <use x="420.507812" xlink:href="#DejaVuSans-91"/>
     <use x="459.521484" xlink:href="#DejaVuSans-52"/>
     <use x="523.144531" xlink:href="#DejaVuSans-53"/>
     <use x="586.767578" xlink:href="#DejaVuSans-49"/>
     <use x="650.390625" xlink:href="#DejaVuSans-44"/>
     <use x="682.177734" xlink:href="#DejaVuSans-32"/>
     <use x="713.964844" xlink:href="#DejaVuSans-49"/>
     <use x="777.587891" xlink:href="#DejaVuSans-93"/>
    </g>
   </g>
   <g id="patch_20">
    <path d="M 418.021444 104.712072 
Q 363.206135 77.481241 307.389537 49.752996 
" style="fill:none;stroke:#000000;stroke-linecap:round;"/>
    <path d="M 415.882285 101.875162 
L 418.021444 104.712072 
L 414.468421 104.721253 
" style="fill:none;stroke:#000000;stroke-linecap:round;"/>
   </g>
   <g id="text_10">
    <g id="patch_21">
     <path d="M 421.310414 143.151186 
L 487.489586 143.151186 
L 487.489586 102.416814 
L 421.310414 102.416814 
z
" style="fill:#ffffff;stroke:#000000;stroke-linejoin:miter;"/>
    </g>
    <!-- X[12] &lt;= 0.5 -->
    <g transform="translate(428.024414 111.631572)scale(0.079448 -0.079448)">
     <use xlink:href="#DejaVuSans-88"/>
     <use x="68.505859" xlink:href="#DejaVuSans-91"/>
     <use x="107.519531" xlink:href="#DejaVuSans-49"/>
     <use x="171.142578" xlink:href="#DejaVuSans-50"/>
     <use x="234.765625" xlink:href="#DejaVuSans-93"/>
     <use x="273.779297" xlink:href="#DejaVuSans-32"/>
     <use x="305.566406" xlink:href="#DejaVuSans-60"/>
     <use x="389.355469" xlink:href="#DejaVuSans-61"/>
     <use x="473.144531" xlink:href="#DejaVuSans-32"/>
     <use x="504.931641" xlink:href="#DejaVuSans-48"/>
     <use x="568.554688" xlink:href="#DejaVuSans-46"/>
     <use x="600.341797" xlink:href="#DejaVuSans-53"/>
    </g>
    <!-- gini = 0.198 -->
    <g transform="translate(429.927448 120.528041)scale(0.079448 -0.079448)">
     <use xlink:href="#DejaVuSans-103"/>
     <use x="63.476562" xlink:href="#DejaVuSans-105"/>
     <use x="91.259766" xlink:href="#DejaVuSans-110"/>
     <use x="154.638672" xlink:href="#DejaVuSans-105"/>
     <use x="182.421875" xlink:href="#DejaVuSans-32"/>
     <use x="214.208984" xlink:href="#DejaVuSans-61"/>
     <use x="297.998047" xlink:href="#DejaVuSans-32"/>
     <use x="329.785156" xlink:href="#DejaVuSans-48"/>
     <use x="393.408203" xlink:href="#DejaVuSans-46"/>
     <use x="425.195312" xlink:href="#DejaVuSans-49"/>
     <use x="488.818359" xlink:href="#DejaVuSans-57"/>
     <use x="552.441406" xlink:href="#DejaVuSans-56"/>
    </g>
    <!-- samples = 27 -->
    <defs>
     <path d="M 8.203125 72.90625 
L 55.078125 72.90625 
L 55.078125 68.703125 
L 28.609375 0 
L 18.3125 0 
L 43.21875 64.59375 
L 8.203125 64.59375 
z
" id="DejaVuSans-55"/>
    </defs>
    <g transform="translate(426.979172 129.42451)scale(0.079448 -0.079448)">
     <use xlink:href="#DejaVuSans-115"/>
     <use x="52.099609" xlink:href="#DejaVuSans-97"/>
     <use x="113.378906" xlink:href="#DejaVuSans-109"/>
     <use x="210.791016" xlink:href="#DejaVuSans-112"/>
     <use x="274.267578" xlink:href="#DejaVuSans-108"/>
     <use x="302.050781" xlink:href="#DejaVuSans-101"/>
     <use x="363.574219" xlink:href="#DejaVuSans-115"/>
     <use x="415.673828" xlink:href="#DejaVuSans-32"/>
     <use x="447.460938" xlink:href="#DejaVuSans-61"/>
     <use x="531.25" xlink:href="#DejaVuSans-32"/>
     <use x="563.037109" xlink:href="#DejaVuSans-50"/>
     <use x="626.660156" xlink:href="#DejaVuSans-55"/>
    </g>
    <!-- value = [24, 3] -->
    <g transform="translate(424.488345 138.320979)scale(0.079448 -0.079448)">
     <use xlink:href="#DejaVuSans-118"/>
     <use x="59.179688" xlink:href="#DejaVuSans-97"/>
     <use x="120.458984" xlink:href="#DejaVuSans-108"/>
     <use x="148.242188" xlink:href="#DejaVuSans-117"/>
     <use x="211.621094" xlink:href="#DejaVuSans-101"/>
     <use x="273.144531" xlink:href="#DejaVuSans-32"/>
     <use x="304.931641" xlink:href="#DejaVuSans-61"/>
     <use x="388.720703" xlink:href="#DejaVuSans-32"/>
     <use x="420.507812" xlink:href="#DejaVuSans-91"/>
     <use x="459.521484" xlink:href="#DejaVuSans-50"/>
     <use x="523.144531" xlink:href="#DejaVuSans-52"/>
     <use x="586.767578" xlink:href="#DejaVuSans-44"/>
     <use x="618.554688" xlink:href="#DejaVuSans-32"/>
     <use x="650.341797" xlink:href="#DejaVuSans-51"/>
     <use x="713.964844" xlink:href="#DejaVuSans-93"/>
    </g>
   </g>
   <g id="patch_22">
    <path d="M 219.154818 29.855206 
Q 236.709079 3.693695 254.886293 -23.396217 
" style="fill:none;stroke:#000000;stroke-linecap:round;"/>
    <path d="M 222.244975 28.101642 
L 219.154818 29.855206 
L 219.606061 26.330942 
" style="fill:none;stroke:#000000;stroke-linecap:round;"/>
   </g>
   <g id="text_11">
    <g id="patch_23">
     <path d="M 175.837862 64.782952 
L 236.962138 64.782952 
L 236.962138 32.945048 
L 175.837862 32.945048 
z
" style="fill:#ffffff;stroke:#000000;stroke-linejoin:miter;"/>
    </g>
    <!-- gini = 0.0 -->
    <g transform="translate(186.982345 42.159807)scale(0.079448 -0.079448)">
     <use xlink:href="#DejaVuSans-103"/>
     <use x="63.476562" xlink:href="#DejaVuSans-105"/>
     <use x="91.259766" xlink:href="#DejaVuSans-110"/>
     <use x="154.638672" xlink:href="#DejaVuSans-105"/>
     <use x="182.421875" xlink:href="#DejaVuSans-32"/>
     <use x="214.208984" xlink:href="#DejaVuSans-61"/>
     <use x="297.998047" xlink:href="#DejaVuSans-32"/>
     <use x="329.785156" xlink:href="#DejaVuSans-48"/>
     <use x="393.408203" xlink:href="#DejaVuSans-46"/>
     <use x="425.195312" xlink:href="#DejaVuSans-48"/>
    </g>
    <!-- samples = 1 -->
    <g transform="translate(181.506621 51.056276)scale(0.079448 -0.079448)">
     <use xlink:href="#DejaVuSans-115"/>
     <use x="52.099609" xlink:href="#DejaVuSans-97"/>
     <use x="113.378906" xlink:href="#DejaVuSans-109"/>
     <use x="210.791016" xlink:href="#DejaVuSans-112"/>
     <use x="274.267578" xlink:href="#DejaVuSans-108"/>
     <use x="302.050781" xlink:href="#DejaVuSans-101"/>
     <use x="363.574219" xlink:href="#DejaVuSans-115"/>
     <use x="415.673828" xlink:href="#DejaVuSans-32"/>
     <use x="447.460938" xlink:href="#DejaVuSans-61"/>
     <use x="531.25" xlink:href="#DejaVuSans-32"/>
     <use x="563.037109" xlink:href="#DejaVuSans-49"/>
    </g>
    <!-- value = [0, 1] -->
    <g transform="translate(179.015793 59.952745)scale(0.079448 -0.079448)">
     <use xlink:href="#DejaVuSans-118"/>
     <use x="59.179688" xlink:href="#DejaVuSans-97"/>
     <use x="120.458984" xlink:href="#DejaVuSans-108"/>
     <use x="148.242188" xlink:href="#DejaVuSans-117"/>
     <use x="211.621094" xlink:href="#DejaVuSans-101"/>
     <use x="273.144531" xlink:href="#DejaVuSans-32"/>
     <use x="304.931641" xlink:href="#DejaVuSans-61"/>
     <use x="388.720703" xlink:href="#DejaVuSans-32"/>
     <use x="420.507812" xlink:href="#DejaVuSans-91"/>
     <use x="459.521484" xlink:href="#DejaVuSans-48"/>
     <use x="523.144531" xlink:href="#DejaVuSans-44"/>
     <use x="554.931641" xlink:href="#DejaVuSans-32"/>
     <use x="586.71875" xlink:href="#DejaVuSans-49"/>
     <use x="650.341797" xlink:href="#DejaVuSans-93"/>
    </g>
   </g>
   <g id="patch_24">
    <path d="M 289.859489 25.40556 
Q 273.797899 1.46861 257.113355 -23.396742 
" style="fill:none;stroke:#000000;stroke-linecap:round;"/>
    <path d="M 289.408246 21.881296 
L 289.859489 25.40556 
L 286.769332 23.651996 
" style="fill:none;stroke:#000000;stroke-linecap:round;"/>
   </g>
   <g id="text_12">
    <g id="patch_25">
     <path d="M 269.982966 69.231186 
L 341.217034 69.231186 
L 341.217034 28.496814 
L 269.982966 28.496814 
z
" style="fill:#ffffff;stroke:#000000;stroke-linejoin:miter;"/>
    </g>
    <!-- X[10] &lt;= 12.55 -->
    <g transform="translate(274.169517 37.711572)scale(0.079448 -0.079448)">
     <use xlink:href="#DejaVuSans-88"/>
     <use x="68.505859" xlink:href="#DejaVuSans-91"/>
     <use x="107.519531" xlink:href="#DejaVuSans-49"/>
     <use x="171.142578" xlink:href="#DejaVuSans-48"/>
     <use x="234.765625" xlink:href="#DejaVuSans-93"/>
     <use x="273.779297" xlink:href="#DejaVuSans-32"/>
     <use x="305.566406" xlink:href="#DejaVuSans-60"/>
     <use x="389.355469" xlink:href="#DejaVuSans-61"/>
     <use x="473.144531" xlink:href="#DejaVuSans-32"/>
     <use x="504.931641" xlink:href="#DejaVuSans-49"/>
     <use x="568.554688" xlink:href="#DejaVuSans-50"/>
     <use x="632.177734" xlink:href="#DejaVuSans-46"/>
     <use x="663.964844" xlink:href="#DejaVuSans-53"/>
     <use x="727.587891" xlink:href="#DejaVuSans-53"/>
    </g>
    <!-- gini = 0.017 -->
    <g transform="translate(281.127448 46.608041)scale(0.079448 -0.079448)">
     <use xlink:href="#DejaVuSans-103"/>
     <use x="63.476562" xlink:href="#DejaVuSans-105"/>
     <use x="91.259766" xlink:href="#DejaVuSans-110"/>
     <use x="154.638672" xlink:href="#DejaVuSans-105"/>
     <use x="182.421875" xlink:href="#DejaVuSans-32"/>
     <use x="214.208984" xlink:href="#DejaVuSans-61"/>
     <use x="297.998047" xlink:href="#DejaVuSans-32"/>
     <use x="329.785156" xlink:href="#DejaVuSans-48"/>
     <use x="393.408203" xlink:href="#DejaVuSans-46"/>
     <use x="425.195312" xlink:href="#DejaVuSans-48"/>
     <use x="488.818359" xlink:href="#DejaVuSans-49"/>
     <use x="552.441406" xlink:href="#DejaVuSans-55"/>
    </g>
    <!-- samples = 479 -->
    <g transform="translate(275.651724 55.50451)scale(0.079448 -0.079448)">
     <use xlink:href="#DejaVuSans-115"/>
     <use x="52.099609" xlink:href="#DejaVuSans-97"/>
     <use x="113.378906" xlink:href="#DejaVuSans-109"/>
     <use x="210.791016" xlink:href="#DejaVuSans-112"/>
     <use x="274.267578" xlink:href="#DejaVuSans-108"/>
     <use x="302.050781" xlink:href="#DejaVuSans-101"/>
     <use x="363.574219" xlink:href="#DejaVuSans-115"/>
     <use x="415.673828" xlink:href="#DejaVuSans-32"/>
     <use x="447.460938" xlink:href="#DejaVuSans-61"/>
     <use x="531.25" xlink:href="#DejaVuSans-32"/>
     <use x="563.037109" xlink:href="#DejaVuSans-52"/>
     <use x="626.660156" xlink:href="#DejaVuSans-55"/>
     <use x="690.283203" xlink:href="#DejaVuSans-57"/>
    </g>
    <!-- value = [475, 4] -->
    <g transform="translate(273.160897 64.400979)scale(0.079448 -0.079448)">
     <use xlink:href="#DejaVuSans-118"/>
     <use x="59.179688" xlink:href="#DejaVuSans-97"/>
     <use x="120.458984" xlink:href="#DejaVuSans-108"/>
     <use x="148.242188" xlink:href="#DejaVuSans-117"/>
     <use x="211.621094" xlink:href="#DejaVuSans-101"/>
     <use x="273.144531" xlink:href="#DejaVuSans-32"/>
     <use x="304.931641" xlink:href="#DejaVuSans-61"/>
     <use x="388.720703" xlink:href="#DejaVuSans-32"/>
     <use x="420.507812" xlink:href="#DejaVuSans-91"/>
     <use x="459.521484" xlink:href="#DejaVuSans-52"/>
     <use x="523.144531" xlink:href="#DejaVuSans-55"/>
     <use x="586.767578" xlink:href="#DejaVuSans-53"/>
     <use x="650.390625" xlink:href="#DejaVuSans-44"/>
     <use x="682.177734" xlink:href="#DejaVuSans-32"/>
     <use x="713.964844" xlink:href="#DejaVuSans-52"/>
     <use x="777.587891" xlink:href="#DejaVuSans-93"/>
    </g>
   </g>
   <g id="text_13">
    <g id="patch_26">
     <path d="M 220.382966 -4.688814 
L 291.617034 -4.688814 
L 291.617034 -45.423186 
L 220.382966 -45.423186 
z
" style="fill:#ffffff;stroke:#000000;stroke-linejoin:miter;"/>
    </g>
    <!-- X[8] &lt;= 2.9 -->
    <g transform="translate(232.151862 -36.208428)scale(0.079448 -0.079448)">
     <use xlink:href="#DejaVuSans-88"/>
     <use x="68.505859" xlink:href="#DejaVuSans-91"/>
     <use x="107.519531" xlink:href="#DejaVuSans-56"/>
     <use x="171.142578" xlink:href="#DejaVuSans-93"/>
     <use x="210.15625" xlink:href="#DejaVuSans-32"/>
     <use x="241.943359" xlink:href="#DejaVuSans-60"/>
     <use x="325.732422" xlink:href="#DejaVuSans-61"/>
     <use x="409.521484" xlink:href="#DejaVuSans-32"/>
     <use x="441.308594" xlink:href="#DejaVuSans-50"/>
     <use x="504.931641" xlink:href="#DejaVuSans-46"/>
     <use x="536.71875" xlink:href="#DejaVuSans-57"/>
    </g>
    <!-- gini = 0.021 -->
    <g transform="translate(231.527448 -27.311959)scale(0.079448 -0.079448)">
     <use xlink:href="#DejaVuSans-103"/>
     <use x="63.476562" xlink:href="#DejaVuSans-105"/>
     <use x="91.259766" xlink:href="#DejaVuSans-110"/>
     <use x="154.638672" xlink:href="#DejaVuSans-105"/>
     <use x="182.421875" xlink:href="#DejaVuSans-32"/>
     <use x="214.208984" xlink:href="#DejaVuSans-61"/>
     <use x="297.998047" xlink:href="#DejaVuSans-32"/>
     <use x="329.785156" xlink:href="#DejaVuSans-48"/>
     <use x="393.408203" xlink:href="#DejaVuSans-46"/>
     <use x="425.195312" xlink:href="#DejaVuSans-48"/>
     <use x="488.818359" xlink:href="#DejaVuSans-50"/>
     <use x="552.441406" xlink:href="#DejaVuSans-49"/>
    </g>
    <!-- samples = 480 -->
    <g transform="translate(226.051724 -18.41549)scale(0.079448 -0.079448)">
     <use xlink:href="#DejaVuSans-115"/>
     <use x="52.099609" xlink:href="#DejaVuSans-97"/>
     <use x="113.378906" xlink:href="#DejaVuSans-109"/>
     <use x="210.791016" xlink:href="#DejaVuSans-112"/>
     <use x="274.267578" xlink:href="#DejaVuSans-108"/>
     <use x="302.050781" xlink:href="#DejaVuSans-101"/>
     <use x="363.574219" xlink:href="#DejaVuSans-115"/>
     <use x="415.673828" xlink:href="#DejaVuSans-32"/>
     <use x="447.460938" xlink:href="#DejaVuSans-61"/>
     <use x="531.25" xlink:href="#DejaVuSans-32"/>
     <use x="563.037109" xlink:href="#DejaVuSans-52"/>
     <use x="626.660156" xlink:href="#DejaVuSans-56"/>
     <use x="690.283203" xlink:href="#DejaVuSans-48"/>
    </g>
    <!-- value = [475, 5] -->
    <g transform="translate(223.560897 -9.519021)scale(0.079448 -0.079448)">
     <use xlink:href="#DejaVuSans-118"/>
     <use x="59.179688" xlink:href="#DejaVuSans-97"/>
     <use x="120.458984" xlink:href="#DejaVuSans-108"/>
     <use x="148.242188" xlink:href="#DejaVuSans-117"/>
     <use x="211.621094" xlink:href="#DejaVuSans-101"/>
     <use x="273.144531" xlink:href="#DejaVuSans-32"/>
     <use x="304.931641" xlink:href="#DejaVuSans-61"/>
     <use x="388.720703" xlink:href="#DejaVuSans-32"/>
     <use x="420.507812" xlink:href="#DejaVuSans-91"/>
     <use x="459.521484" xlink:href="#DejaVuSans-52"/>
     <use x="523.144531" xlink:href="#DejaVuSans-55"/>
     <use x="586.767578" xlink:href="#DejaVuSans-53"/>
     <use x="650.390625" xlink:href="#DejaVuSans-44"/>
     <use x="682.177734" xlink:href="#DejaVuSans-32"/>
     <use x="713.964844" xlink:href="#DejaVuSans-53"/>
     <use x="777.587891" xlink:href="#DejaVuSans-93"/>
    </g>
   </g>
  </g>
 </g>
</svg>
